<?xml version="1.0" encoding="UTF-8"?>
<svg width="1200pt" height="1200pt" version="1.1" viewBox="0 0 1200 1200" xmlns="http://www.w3.org/2000/svg">
 <g>
  <path d="m1200 600c0 214.36-114.36 412.44-300 519.62-185.64 107.18-414.36 107.18-600 0-185.64-107.18-300-305.26-300-519.62s114.36-412.44 300-519.62c185.64-107.18 414.36-107.18 600 0 185.64 107.18 300 305.26 300 519.62" fill="#ff387a"/>
  <path d="m398.94 382.64h279.86c31.379 0 57.066 25.688 57.066 57.066v449.67c0 31.379-25.688 57.066-57.066 57.066h-279.86c-31.379 0-57.066-25.664-57.066-57.066v-449.67c0-31.379 25.688-57.066 57.066-57.066zm122.27-129.07h279.86c31.379 0 57.066 25.688 57.066 57.066v449.65c0 31.379-25.688 57.066-57.066 57.066h-36.977v-377.66c0-46.906-38.383-85.27-85.27-85.27h-214.66v-43.777c0-31.379 25.688-57.066 57.066-57.066z" fill="#fff" fill-rule="evenodd"/>
 </g>
</svg>
