<?xml version="1.0" encoding="UTF-8"?>
<svg width="1200pt" height="1200pt" version="1.1" viewBox="0 0 1200 1200" xmlns="http://www.w3.org/2000/svg">
 <g fill="#ff387a">
  <path d="m733.2 962.4h-266.4c-7.1992 0-13.199 6-13.199 13.199v93.602c0 7.1992 6 13.199 13.199 13.199h31.199c8.3984 49.199 50.398 86.398 102 86.398s93.602-37.199 102-86.398h31.199c7.1992 0 13.199-6 13.199-13.199v-93.602c1.2031-5.9961-4.7969-13.199-13.199-13.199z"/>
  <path d="m600 184.8c19.199 0 34.801-15.602 34.801-34.801v-85.199c0-19.199-15.602-34.801-34.801-34.801s-34.801 15.602-34.801 34.801v85.199c0 19.199 15.602 34.801 34.801 34.801z"/>
  <path d="m373.2 219.6c6 10.801 18 16.801 30 16.801 6 0 12-1.1992 16.801-4.8008 16.801-9.6016 21.602-31.199 13.199-46.801l-43.199-74.398c-9.6016-16.801-31.199-21.602-46.801-13.199-16.801 9.6016-21.602 31.199-13.199 46.801z"/>
  <path d="m276 316.8-74.398-43.199c-16.801-9.6016-37.199-3.6016-46.801 13.199-9.6016 16.801-3.6016 37.199 13.199 46.801l74.398 43.199c6 3.6016 10.801 4.8008 16.801 4.8008 12 0 24-6 30-16.801 9.6016-18 3.6016-38.402-13.199-48z"/>
  <path d="m241.2 543.6c0-19.199-15.602-34.801-34.801-34.801h-85.199c-19.199 0-34.801 15.602-34.801 34.801 0 19.199 15.602 34.801 34.801 34.801h85.199c19.203-0.003906 34.801-15.602 34.801-34.801z"/>
  <path d="m241.2 710.4-73.199 43.203c-16.801 9.6016-21.602 31.199-13.199 46.801 6 10.801 18 16.801 30 16.801 6 0 12-1.1992 16.801-4.8008l74.398-43.199c16.801-9.6016 21.602-31.199 13.199-46.801-9.5977-15.602-31.199-21.602-48-12.004z"/>
  <path d="m1032 753.6-74.398-43.199c-16.801-9.6016-37.199-3.6016-46.801 13.199-9.6016 16.801-3.6016 37.199 13.199 46.801l74.398 43.199c6 3.6016 10.801 4.8008 16.801 4.8008 12 0 24-6 30-16.801 9.6016-18 3.6016-38.402-13.199-48z"/>
  <path d="m1078.8 508.8h-85.199c-19.199 0-34.801 15.602-34.801 34.801 0 19.199 15.602 34.801 34.801 34.801h85.199c19.199 0 34.801-15.602 34.801-34.801 0-19.203-15.602-34.801-34.801-34.801z"/>
  <path d="m940.8 381.6c6 0 12-1.1992 16.801-4.8008l74.398-43.199c16.801-9.6016 21.602-31.199 13.199-46.801-9.6016-16.801-31.199-21.602-46.801-13.199l-74.398 43.199c-16.801 9.6016-21.602 31.199-13.199 46.801 7.1992 10.797 18 18 30 18z"/>
  <path d="m780 232.8c6 3.6016 10.801 4.8008 16.801 4.8008 12 0 24-6 30-16.801l43.199-74.398c9.6016-16.801 3.6016-37.199-13.199-46.801-16.801-9.6016-37.199-3.6016-46.801 13.199l-43.199 74.398c-9.6016 14.402-3.6016 36 13.199 45.602z"/>
  <path d="m613.2 250.8c-96-4.8008-186 37.199-247.2 115.2-32.398 40.801-52.801 91.199-57.602 142.8-8.3984 79.199 13.199 154.8 61.199 216 34.801 44.398 60 87.602 74.398 132l6 18c2.3984 8.3984 10.801 14.398 19.199 14.398h261.6c8.3984 0 16.801-6 19.199-14.398l6-18c14.398-43.199 37.199-85.199 70.801-128.4 26.398-33.602 46.801-72 57.602-114 45.602-184.8-93.598-356.4-271.2-363.6zm-51.598 176.4c0-21.602 18-38.398 38.398-38.398 21.602 0 38.398 18 38.398 38.398v170.4c0 21.602-18 38.398-38.398 38.398-21.602 0-38.398-18-38.398-38.398zm38.398 332.4c-22.801 0-40.801-18-40.801-40.801s18-40.801 40.801-40.801 40.801 18 40.801 40.801-18 40.801-40.801 40.801z"/>
 </g>
</svg>
