<?xml version="1.0" encoding="UTF-8"?>
<svg width="1200pt" height="1200pt" version="1.1" viewBox="0 0 1200 1200" xmlns="http://www.w3.org/2000/svg">
 <path d="m909.6 140.4h-620.4c-92.398 0-168 75.602-168 168v382.8c0 92.398 75.602 168 168 168h394.8l189.6 189.6c6 6 14.398 9.6016 24 9.6016 4.8008 0 8.3984-1.1992 13.199-2.3984 12-4.8008 20.398-18 20.398-31.199v-168c82.801-10.801 146.4-81.602 146.4-165.6l0.003906-382.8c-1.2031-92.398-75.602-168-168-168zm-283.2 516c-6 7.1992-14.398 9.6016-22.801 9.6016-9.6016 0-18-3.6016-24-9.6016-4.8008-6-8.3984-13.199-8.3984-22.801 0-8.3984 3.6016-16.801 9.6016-22.801 12-12 33.602-12 45.602 0 6 6 9.6016 14.398 9.6016 22.801-0.003906 9.6016-3.6055 16.801-9.6055 22.801zm9.6016-154.8c0 18-14.398 32.398-32.398 32.398s-32.398-14.398-32.398-32.398l-0.003906-170.4c0-18 14.398-32.398 32.398-32.398s32.398 14.398 32.398 32.398z" fill="#ffb94c"/>
</svg>
