<?xml version="1.0" encoding="UTF-8"?>
<svg width="1200pt" height="1200pt" version="1.1" viewBox="0 0 1200 1200" xmlns="http://www.w3.org/2000/svg">
 <path d="m357.96 660 1.4414 2.1602c1.8008 2.6406 3.6016 5.1602 5.3984 7.8008l208.44 300h-0.003907c6.082 8.7422 16.055 13.953 26.703 13.953 10.648 0 20.621-5.2109 26.699-13.953l208.2-299.52c1.9219-2.7617 3.9609-5.5195 5.8789-8.3984l1.3203-1.9219c37.664-58.258 53.031-128.15 43.281-196.83-9.7461-68.684-43.957-131.54-96.344-177.01-52.387-45.477-119.43-70.516-188.8-70.516-69.371 0-136.41 25.039-188.8 70.516-52.383 45.473-86.598 108.33-96.344 177.01-9.75 68.68 5.6211 138.57 43.281 196.83zm242.04-276c31.824 0 62.348 12.645 84.852 35.148 22.504 22.504 35.148 53.027 35.148 84.852s-12.645 62.348-35.148 84.852c-22.504 22.504-53.027 35.148-84.852 35.148s-62.348-12.645-84.852-35.148c-22.504-22.504-35.148-53.027-35.148-84.852s12.645-62.348 35.148-84.852c22.504-22.504 53.027-35.148 84.852-35.148z"/>
</svg>
